<?xml version="1.0" encoding="UTF-8"?>
<svg width="60px" height="49px" viewBox="0 0 60 49" version="1.1" xmlns="http://www.w3.org/2000/svg" xmlns:xlink="http://www.w3.org/1999/xlink">
    <title>6655C3E3-34ED-4C0B-A5DB-61E29B037916</title>
    <g id="Page-1" stroke="none" stroke-width="1" fill="none" fill-rule="evenodd">
        <g id="Terms" transform="translate(-1364.000000, -21.000000)" fill="#000000">
            <g id="Group-Copy-2" transform="translate(1364.000000, 21.000000)">
                <path d="M1.1800703,36.2247838 L1.57771529,35.254239 L1.97536028,36.2247838 L1.1800703,36.2247838 Z M1.28256591,34.4634833 L0,37.4776134 L0.671282953,37.4776134 L0.944920914,36.8063304 L2.21050967,36.8063304 L2.48414763,37.4776134 L3.17240773,37.4776134 L1.88973638,34.4634833 L1.28256591,34.4634833 Z" id="Fill-1"></path>
                <path d="M8.26554306,35.9895923 C8.26554306,36.519891 7.90216872,36.8832654 7.36353954,36.8832654 L6.8547522,36.8832654 L6.8547522,35.078942 L7.36353954,35.078942 C7.90216872,35.078942 8.26554306,35.4510685 8.26554306,35.9812619 L8.26554306,35.9895923 Z M7.36353954,34.4847417 L6.19633392,34.4847417 L6.19633392,37.4775712 L7.36353954,37.4775712 C8.30403163,37.4775712 8.95411951,36.8232654 8.95411951,35.9812619 L8.95411951,35.9726151 C8.95411951,35.1302953 8.30403163,34.4847417 7.36353954,34.4847417 L7.36353954,34.4847417 Z" id="Fill-2"></path>
                <polygon id="Fill-4" points="13.9447065 34.4846889 13.1622812 36.5925975 12.3798559 34.4846889 11.6527909 34.4846889 12.8630193 37.4990299 13.4442496 37.4990299 14.6543726 34.4846889"></polygon>
                <polygon id="Fill-6" points="18.3323409 36.2631986 19.7433427 36.2631986 19.7433427 35.6775395 18.3323409 35.6775395 18.3323409 35.0702636 19.9356801 35.0702636 19.9356801 34.48471 17.6783515 34.48471 17.6783515 37.477645 19.9570861 37.477645 19.9570861 36.8918805 18.3323409 36.8918805"></polygon>
                <polygon id="Fill-8" points="25.1146397 36.3276591 23.7121793 34.4846362 23.1050088 34.4846362 23.1050088 37.4775712 23.7547803 37.4775712 23.7547803 35.5749701 25.2040598 37.4775712 25.7644112 37.4775712 25.7644112 34.4846362 25.1146397 34.4846362"></polygon>
                <polygon id="Fill-10" points="28.8310228 35.0918383 29.7413568 35.0918383 29.7413568 37.4776028 30.3999859 37.4776028 30.3999859 35.0918383 31.3109525 35.0918383 31.3109525 34.4846678 28.8310228 34.4846678"></polygon>
                <path d="M36.2804077,36.1991494 C36.2804077,36.6736661 36.0365062,36.9174622 35.6347487,36.9174622 C35.2329912,36.9174622 34.9891951,36.6653357 34.9891951,36.1780598 L34.9891951,34.4846678 L34.3310931,34.4846678 L34.3310931,36.1950369 C34.3310931,37.0757399 34.8222707,37.5246327 35.6264183,37.5246327 C36.4300387,37.5246327 36.9385097,37.0800633 36.9385097,36.1735255 L36.9385097,34.4846678 L36.2804077,34.4846678 L36.2804077,36.1991494 Z" id="Fill-12"></path>
                <path d="M42.0022039,35.5150756 C42.0022039,35.7673076 41.8186186,35.9383445 41.4978453,35.9383445 L40.8307803,35.9383445 L40.8307803,35.078942 L41.4847698,35.078942 C41.8055431,35.078942 42.0022039,35.2244605 42.0022039,35.5067452 L42.0022039,35.5150756 Z M42.6692689,35.4808049 L42.6692689,35.4724745 C42.6692689,35.1901898 42.5793216,34.954935 42.4123972,34.7883269 C42.2161582,34.5916661 41.9211142,34.4847417 41.5401301,34.4847417 L40.1720457,34.4847417 L40.1720457,37.4775712 L40.8307803,37.4775712 L40.8307803,36.519891 L41.3482144,36.519891 L41.9891283,37.4775712 L42.7586889,37.4775712 L42.0278278,36.4087487 C42.4081793,36.2677645 42.6692689,35.9639684 42.6692689,35.4808049 L42.6692689,35.4808049 Z" id="Fill-14"></path>
                <path d="M48.184819,35.9895923 C48.184819,36.5029139 47.8176485,36.921754 47.2869279,36.921754 C46.757051,36.921754 46.3809174,36.4942671 46.3809174,35.9812619 L46.3809174,35.9726151 C46.3809174,35.4597153 46.7487206,35.0405589 47.2785975,35.0405589 C47.8086854,35.0405589 48.184819,35.4680457 48.184819,35.9812619 L48.184819,35.9895923 Z M48.87329,35.9726151 C48.87329,35.1218594 48.2104429,34.4333884 47.2869279,34.4333884 C46.3636239,34.4333884 45.6923409,35.1302953 45.6923409,35.9812619 L45.6923409,35.9895923 C45.6923409,36.8405589 46.355188,37.5289244 47.2785975,37.5289244 C48.2021125,37.5289244 48.87329,36.8319121 48.87329,35.9812619 L48.87329,35.9726151 Z" id="Fill-16"></path>
                <path d="M53.9239192,36.1991494 C53.9239192,36.6736661 53.6800176,36.9174622 53.2782601,36.9174622 C52.8763972,36.9174622 52.6326011,36.6653357 52.6326011,36.1780598 L52.6326011,34.4846678 L51.9744991,34.4846678 L51.9744991,36.1950369 C51.9744991,37.0757399 52.4656766,37.5246327 53.2699297,37.5246327 C54.0735501,37.5246327 54.5820211,37.0800633 54.5820211,36.1735255 L54.5820211,34.4846678 L53.9239192,34.4846678 L53.9239192,36.1991494 Z" id="Fill-18"></path>
                <path d="M59.0298137,35.6862179 C58.5123796,35.5535641 58.3842601,35.4894517 58.3842601,35.2927909 L58.3842601,35.284355 C58.3842601,35.138942 58.5172302,35.0235817 58.7692513,35.0235817 C59.0214833,35.0235817 59.2820457,35.1348295 59.5472478,35.3184148 L59.8894271,34.822703 C59.5860527,34.5788014 59.2140316,34.4420351 58.7776872,34.4420351 C58.1666151,34.4420351 57.7302707,34.8011916 57.7302707,35.3440387 L57.7302707,35.3526854 C57.7302707,35.9469912 58.1194798,36.1135993 58.7222214,36.2677645 C59.222362,36.395884 59.3249631,36.4814025 59.3249631,36.6480105 L59.3249631,36.6566573 C59.3249631,36.8319121 59.1627838,36.938942 58.8933638,36.938942 C58.5511845,36.938942 58.2691107,36.7976415 57.9996907,36.5753568 L57.6103761,37.0415431 C57.9698489,37.3623163 58.4271775,37.5202777 58.8801828,37.5202777 C59.5258418,37.5202777 59.9789525,37.1869561 59.9789525,36.5926503 L59.9789525,36.5840035 C59.9789525,36.0623515 59.6373005,35.8444956 59.0298137,35.6862179" id="Fill-20"></path>
                <path d="M10.3717223,42.5173814 C10.3717223,42.8637786 10.2179789,43.0134095 9.9698594,43.0134095 C9.76033392,43.0134095 9.59372583,42.9021617 9.42268893,42.7140422 L9.00806678,43.1757996 C9.213058,43.4197012 9.52107206,43.6246924 9.98725835,43.6246924 C10.3121441,43.6246924 10.5812478,43.5308436 10.7651494,43.346942 C10.9449385,43.1674692 11.0474341,42.9021617 11.0474341,42.5474341 L11.0474341,40.5891564 L10.3717223,40.5891564 L10.3717223,42.5173814 Z" id="Fill-22"></path>
                <path d="M16.6413533,42.0941547 C16.6413533,42.6073708 16.2735501,43.0262109 15.7432513,43.0262109 C15.2132689,43.0262109 14.8371353,42.5987241 14.8371353,42.0858243 L14.8371353,42.0771775 C14.8371353,41.5641722 15.2046221,41.1451213 15.7349209,41.1451213 C16.2649033,41.1451213 16.6413533,41.5725026 16.6413533,42.0858243 L16.6413533,42.0941547 Z M15.7432513,40.5378453 C14.8198418,40.5378453 14.1485589,41.2348576 14.1485589,42.0858243 L14.1485589,42.0941547 C14.1485589,42.9451213 14.8115114,43.6333814 15.7349209,43.6333814 C16.6583304,43.6333814 17.3296134,42.9364745 17.3296134,42.0858243 L17.3296134,42.0771775 C17.3296134,41.2264218 16.6669772,40.5378453 15.7432513,40.5378453 L15.7432513,40.5378453 Z" id="Fill-24"></path>
                <path d="M22.3795255,42.3037118 C22.3795255,42.7782285 22.1357293,43.0220246 21.7338664,43.0220246 C21.332109,43.0220246 21.0883128,42.7698981 21.0883128,42.2825167 L21.0883128,40.5891248 L20.4298946,40.5891248 L20.4298946,42.2994938 C20.4298946,43.1803023 20.9217047,43.6291951 21.7252197,43.6291951 C22.5291564,43.6291951 23.0379438,43.1845202 23.0379438,42.2780879 L23.0379438,40.5891248 L22.3795255,40.5891248 L22.3795255,42.3037118 Z" id="Fill-26"></path>
                <path d="M28.1013216,41.619638 C28.1013216,41.8717645 27.9177364,42.0429069 27.5969631,42.0429069 L26.9298981,42.0429069 L26.9298981,41.1835044 L27.5838875,41.1835044 C27.9045554,41.1835044 28.1013216,41.3289174 28.1013216,41.6113076 L28.1013216,41.619638 Z M28.7683866,41.5853673 L28.7683866,41.5770369 C28.7683866,41.2947522 28.6784394,41.0594974 28.5115149,40.8928893 C28.3152759,40.696123 28.020232,40.5891986 27.6393533,40.5891986 L26.2711634,40.5891986 L26.2711634,43.5820281 L26.9298981,43.5820281 L26.9298981,42.624348 L27.4473322,42.624348 L28.0881406,43.5820281 L28.8578067,43.5820281 L28.1269455,42.5133111 C28.507297,42.3722214 28.7683866,42.0685308 28.7683866,41.5853673 L28.7683866,41.5853673 Z" id="Fill-28"></path>
                <polygon id="Fill-30" points="33.9339754 42.432116 32.5318313 40.5890931 31.9243445 40.5890931 31.9243445 43.5820281 32.5747487 43.5820281 32.5747487 41.6794271 34.0240281 43.5820281 34.5837469 43.5820281 34.5837469 40.5890931 33.9339754 40.5890931"></polygon>
                <polygon id="Fill-32" points="38.5189139 42.367761 39.9293884 42.367761 39.9293884 41.7819965 38.5189139 41.7819965 38.5189139 41.174826 40.1219367 41.174826 40.1219367 40.589167 37.8643972 40.589167 37.8643972 43.5821019 40.1433427 43.5821019 40.1433427 42.9964429 38.5189139 42.9964429"></polygon>
                <polygon id="Fill-34" points="44.467877 41.7906749 43.7536766 40.5890931 42.984116 40.5890931 44.1340281 42.4020633 44.1340281 43.5820281 44.7927627 43.5820281 44.7927627 42.3891986 45.9426749 40.5890931 45.1946257 40.5890931"></polygon>
                <path d="M49.9798102,41.7906749 C49.4623761,41.6580211 49.3341511,41.5940141 49.3341511,41.3972478 L49.3341511,41.388812 C49.3341511,41.2435044 49.4671213,41.1281441 49.7192478,41.1281441 C49.9714798,41.1281441 50.2320422,41.2392865 50.4972443,41.4228717 L50.8394236,40.9272654 C50.5359438,40.6833638 50.1640281,40.5464921 49.7275782,40.5464921 C49.1165062,40.5464921 48.6802671,40.9056485 48.6802671,41.4484956 L48.6802671,41.4571424 C48.6802671,42.0515536 49.0694763,42.2181617 49.6722179,42.3722214 C50.1723585,42.5003409 50.2748541,42.5859649 50.2748541,42.7525729 L50.2748541,42.7612197 C50.2748541,42.9364745 50.1127803,43.0435044 49.8432548,43.0435044 C49.5010756,43.0435044 49.2191072,42.9022039 48.9495817,42.6799192 L48.5603726,43.1461054 C48.9198453,43.4667733 49.3770685,43.6247346 49.8301793,43.6247346 C50.4757329,43.6247346 50.9288436,43.291413 50.9288436,42.6971072 L50.9288436,42.6885659 C50.9288436,42.1668084 50.587297,41.9489525 49.9798102,41.7906749" id="Fill-36"></path>
                <path d="M27.2252865,25.8706819 L26.7365975,25.8706819 L26.7365975,24.2234763 C26.7610191,24.1389069 26.8891682,24.0742671 27.0174459,24.0868155 C27.1255435,24.0963058 27.2133327,24.155884 27.2252865,24.2130369 L27.2252865,25.8706819 Z M27.4793996,24.197536 C27.4485513,24.0293462 27.269888,23.8981687 27.0448238,23.8781336 C26.777343,23.8553568 26.5247723,23.9967627 26.48287,24.1952162 L26.480942,26.0803128 L27.480942,26.0803128 L27.4793996,24.197536 Z" id="Fill-38"></path>
                <path d="M33.6477734,25.8706819 L33.1590245,25.8706819 L33.1590245,24.2234763 C33.1837127,24.138696 33.3115255,24.0741617 33.4401098,24.0868155 C33.547992,24.0963058 33.635815,24.155884 33.6477734,24.2130369 L33.6477734,25.8706819 Z M33.9022417,24.197536 C33.8711243,24.0293462 33.6925207,23.8981687 33.4673696,23.8781336 C33.1969569,23.8553568 32.9473748,23.9967627 32.9054563,24.1952162 L32.9033989,26.0803128 L33.9033989,26.0803128 L33.9022417,24.197536 Z" id="Fill-40"></path>
                <path d="M32.5773096,25.8706819 L32.0883635,25.8706819 L32.0883635,24.2234763 C32.1130422,24.138696 32.2415769,24.0741617 32.3693404,24.0868155 C32.477181,24.0963058 32.5652273,24.1559895 32.5773096,24.2130369 L32.5773096,25.8706819 Z M32.8315512,24.1973251 C32.8001887,24.0292408 32.6212684,23.8980633 32.3965898,23.8781336 C32.1266669,23.8553568 31.8767954,23.9967627 31.8348931,24.1952162 L31.8328366,26.0803128 L32.8328366,26.0803128 L32.8315512,24.1973251 Z" id="Fill-42"></path>
                <path d="M31.506986,25.8706819 L31.0182372,25.8706819 L31.0182372,24.2234763 C31.0429253,24.138696 31.171381,24.0741617 31.2993224,24.0868155 C31.4072046,24.0963058 31.4950277,24.155884 31.506986,24.2130369 L31.506986,25.8706819 Z M31.7614543,24.197536 C31.7303369,24.0293462 31.5516048,23.8981687 31.3265823,23.8781336 C31.0565553,23.8553568 30.8065874,23.9967627 30.7646689,24.1952162 L30.7626116,26.0803128 L31.7626116,26.0803128 L31.7614543,24.197536 Z" id="Fill-44"></path>
                <path d="M28.295818,25.8706819 L27.8070662,25.8706819 L27.8070662,24.2234763 C27.831491,24.1389069 27.9575997,24.0742671 28.0879507,24.0868155 C28.1958052,24.0963058 28.2838628,24.1559895 28.295818,24.2130369 L28.295818,25.8706819 Z M28.5499638,24.1974306 C28.5189829,24.0293462 28.3401682,23.8980633 28.1152035,23.8781336 C27.847817,23.8553568 27.5952138,23.9967627 27.5533061,24.1952162 L27.5513779,26.0803128 L28.5513779,26.0803128 L28.5499638,24.1974306 Z" id="Fill-46"></path>
                <path d="M29.3661489,25.8706819 L28.8772657,25.8706819 L28.8772657,24.2234763 C28.9018127,24.1389069 29.028146,24.0742671 29.1582064,24.0868155 C29.2660332,24.0963058 29.3539396,24.1559895 29.3661489,24.2130369 L29.3661489,25.8706819 Z M29.6203578,24.1973251 C29.5891279,24.0292408 29.4101021,23.8980633 29.1854523,23.8781336 C28.9178774,23.8553568 28.6654677,23.9967627 28.6235708,24.1952162 L28.6217715,26.0803128 L29.6217715,26.0803128 L29.6203578,24.1973251 Z" id="Fill-48"></path>
                <path d="M30.4365328,25.8706819 L29.9475867,25.8706819 L29.9475867,24.2234763 C29.9718798,24.138696 30.1014428,24.0741617 30.2285636,24.0868155 C30.3366613,24.0963058 30.4244505,24.155884 30.4365328,24.2130369 L30.4365328,25.8706819 Z M30.6907744,24.197536 C30.6597975,24.0293462 30.4811343,23.8980633 30.255813,23.8781336 C29.9858901,23.8553568 29.7360186,23.9967627 29.6941163,24.1952162 L29.6920598,26.0803128 L30.6920598,26.0803128 L30.6907744,24.197536 Z" id="Fill-50"></path>
                <path d="M35.7415941,25.8706819 L35.2528452,25.8706819 L35.2528452,24.2234763 C35.2772763,24.138696 35.4067606,24.0741617 35.5339305,24.0868155 C35.6418127,24.0963058 35.7296358,24.155884 35.7415941,24.2130369 L35.7415941,25.8706819 Z M35.9960624,24.197536 C35.964945,24.0293462 35.7862129,23.8981687 35.5611904,23.8781336 C35.2907776,23.8553568 35.0411955,23.9967627 34.999277,24.1952162 L34.9972197,26.0803128 L35.9972197,26.0803128 L35.9960624,24.197536 Z" id="Fill-52"></path>
                <path d="M36.8119176,25.8706819 L36.3229716,25.8706819 L36.3229716,24.2234763 C36.3473932,24.138696 36.4764421,24.0741617 36.6039485,24.0868155 C36.7121747,24.0963058 36.7999639,24.155884 36.8119176,24.2130369 L36.8119176,25.8706819 Z M37.0662878,24.197536 C37.0351824,24.0293462 36.8565192,23.8980633 36.6311979,23.8781336 C36.3608894,23.8553568 36.1114035,23.9967627 36.0695012,24.1952162 L36.0674446,26.0803128 L37.0674446,26.0803128 L37.0662878,24.197536 Z" id="Fill-54"></path>
                <path d="M24.0178501,25.8706819 L23.5290954,25.8706819 L23.5290954,24.2234763 C23.5533854,24.1388014 23.6828032,24.0745835 23.8100362,24.0868155 C23.9178629,24.0963058 24.0058979,24.1559895 24.0178501,24.2130369 L24.0178501,25.8706819 Z M23.8374106,23.8781336 C23.5703498,23.8553568 23.3172975,23.9967627 23.275272,24.1952162 L23.2734728,26.0803128 L24.2734728,26.0803128 L24.2719305,24.1974306 C24.2409577,24.0293462 24.0623174,23.8981687 23.8374106,23.8781336 L23.8374106,23.8781336 Z" id="Fill-56"></path>
                <path d="M25.0883816,25.8706819 L24.5994356,25.8706819 L24.5994356,24.2234763 C24.6239857,24.1388014 24.7525204,24.0745835 24.880541,24.0868155 C24.9883816,24.0963058 25.0764279,24.1559895 25.0883816,24.2130369 L25.0883816,25.8706819 Z M24.9077904,23.8781336 C24.6405667,23.8553568 24.3876104,23.9967627 24.3457081,24.1952162 L24.3439086,26.0803128 L25.3439086,26.0803128 L25.3424947,24.1974306 C25.3115179,24.0293462 25.1327261,23.8981687 24.9077904,23.8781336 L24.9077904,23.8781336 Z" id="Fill-58"></path>
                <polygon id="Fill-60" points="26.3911424 14.7697012 26.6007733 14.7697012 26.6007733 12.1812654 26.3911424 12.1812654"></polygon>
                <polygon id="Fill-62" points="27.2854482 14.7697012 27.4951845 14.7697012 27.4951845 12.1812654 27.2854482 12.1812654"></polygon>
                <polygon id="Fill-63" points="33.5452724 14.7697012 33.7549033 14.7697012 33.7549033 12.1812654 33.5452724 12.1812654"></polygon>
                <polygon id="Fill-64" points="30.8624605 14.7697012 31.0720914 14.7697012 31.0720914 12.1812654 30.8624605 12.1812654"></polygon>
                <polygon id="Fill-65" points="31.7566608 14.7697012 31.9662917 14.7697012 31.9662917 12.1812654 31.7566608 12.1812654"></polygon>
                <polygon id="Fill-66" points="28.1795431 14.7697012 28.3892794 14.7697012 28.3892794 12.1812654 28.1795431 12.1812654"></polygon>
                <polygon id="Fill-67" points="32.6507557 14.7697012 32.8603866 14.7697012 32.8603866 12.1812654 32.6507557 12.1812654"></polygon>
                <polygon id="Fill-68" points="29.9680492 14.7697012 30.1777856 14.7697012 30.1777856 12.1812654 29.9680492 12.1812654"></polygon>
                <polygon id="Fill-69" points="29.0739543 14.7697012 29.2835852 14.7697012 29.2835852 12.1812654 29.0739543 12.1812654"></polygon>
                <polygon id="Fill-70" points="24.1131459 14.7697012 24.3227768 14.7697012 24.3227768 12.1812654 24.1131459 12.1812654"></polygon>
                <polygon id="Fill-71" points="35.8367663 14.7697012 36.0463972 14.7697012 36.0463972 12.1812654 35.8367663 12.1812654"></polygon>
                <path d="M29.3166538,27.3136977 C29.4015395,26.9524323 29.7319086,26.6895501 30.1027698,26.6886011 L30.1045624,26.6886011 C30.476478,26.6886011 30.8079016,26.951167 30.8927873,27.3136977 L30.9118735,27.3946819 L33.7382004,27.3946819 L33.7382004,27.1849455 L31.0742636,27.1849455 C30.9395009,26.7709561 30.544703,26.4789701 30.1045624,26.4789701 L30.1021371,26.4789701 C29.6559859,26.4800246 29.2697293,26.7665272 29.1350721,27.1849455 L26.4857926,27.1849455 L26.4857926,27.3946819 L29.2977786,27.3946819 L29.3166538,27.3136977 Z" id="Fill-72"></path>
                <path d="M23.1520598,0.940175747 C23.0067522,0.940175747 22.8889666,1.06017575 22.8889666,1.20822496 C22.8889666,1.35627417 23.0067522,1.47627417 23.1520598,1.47627417 C23.2972619,1.47627417 23.4151529,1.35627417 23.4151529,1.20822496 C23.4151529,1.06017575 23.2972619,0.940175747 23.1520598,0.940175747" id="Fill-73"></path>
                <path d="M34.5480316,0.940175747 C34.4027241,0.940175747 34.2849385,1.06017575 34.2849385,1.20822496 C34.2849385,1.35627417 34.4027241,1.47627417 34.5480316,1.47627417 C34.6933392,1.47627417 34.8111248,1.35627417 34.8111248,1.20822496 C34.8111248,1.06017575 34.6933392,0.940175747 34.5480316,0.940175747" id="Fill-74"></path>
                <path d="M32.2688436,0.940175747 C32.123536,0.940175747 32.0057504,1.06017575 32.0057504,1.20822496 C32.0057504,1.35627417 32.123536,1.47627417 32.2688436,1.47627417 C32.4141511,1.47627417 32.5318313,1.35627417 32.5318313,1.20822496 C32.5318313,1.06017575 32.4141511,0.940175747 32.2688436,0.940175747" id="Fill-75"></path>
                <path d="M29.9896134,0.940175747 C29.8443058,0.940175747 29.7265202,1.06017575 29.7265202,1.20822496 C29.7265202,1.35627417 29.8443058,1.47627417 29.9896134,1.47627417 C30.1349209,1.47627417 30.2527065,1.35627417 30.2527065,1.20822496 C30.2527065,1.06017575 30.1349209,0.940175747 29.9896134,0.940175747" id="Fill-76"></path>
                <path d="M27.7104253,0.940175747 C27.5651178,0.940175747 27.4473322,1.06017575 27.4473322,1.20822496 C27.4473322,1.35627417 27.5651178,1.47627417 27.7104253,1.47627417 C27.8557329,1.47627417 27.9735185,1.35627417 27.9735185,1.20822496 C27.9735185,1.06017575 27.8557329,0.940175747 27.7104253,0.940175747" id="Fill-77"></path>
                <path d="M25.4312373,0.940175747 C25.2859297,0.940175747 25.1681441,1.06017575 25.1681441,1.20822496 C25.1681441,1.35627417 25.2859297,1.47627417 25.4312373,1.47627417 C25.5765448,1.47627417 25.6943304,1.35627417 25.6943304,1.20822496 C25.6943304,1.06017575 25.5765448,0.940175747 25.4312373,0.940175747" id="Fill-78"></path>
                <path d="M36.8272091,0.940175747 C36.6819016,0.940175747 36.564116,1.06017575 36.564116,1.20822496 C36.564116,1.35627417 36.6819016,1.47627417 36.8272091,1.47627417 C36.9725167,1.47627417 37.0903023,1.35627417 37.0903023,1.20822496 C37.0903023,1.06017575 36.9725167,0.940175747 36.8272091,0.940175747" id="Fill-79"></path>
                <polygon id="Fill-80" points="26.3911951 8.27582425 26.3911951 8.41881195 26.2481019 8.41881195 26.2481019 8.62854833 26.3911951 8.62854833 26.3911951 8.77153603 26.600826 8.77153603 26.600826 8.62854833 26.7439192 8.62854833 26.7439192 8.41881195 26.600826 8.41881195 26.600826 8.27582425"></polygon>
                <polygon id="Fill-81" points="27.2854376 8.27582425 27.2854376 8.41881195 27.1424499 8.41881195 27.1424499 8.62854833 27.2854376 8.62854833 27.2854376 8.77153603 27.495174 8.77153603 27.495174 8.62854833 27.6381617 8.62854833 27.6381617 8.41881195 27.495174 8.41881195 27.495174 8.27582425"></polygon>
                <polygon id="Fill-82" points="23.9701054 8.62856942 24.1131986 8.62856942 24.1131986 8.77145167 24.3228295 8.77145167 24.3228295 8.62856942 24.4659227 8.62856942 24.4659227 8.41883304 24.3228295 8.41883304 24.3228295 8.27584534 24.1131986 8.27584534 24.1131986 8.41883304 23.9701054 8.41883304"></polygon>
                <polygon id="Fill-83" points="28.1795852 8.27582425 28.1795852 8.41881195 28.0365975 8.41881195 28.0365975 8.62854833 28.1795852 8.62854833 28.1795852 8.77153603 28.3893216 8.77153603 28.3893216 8.62854833 28.5324148 8.62854833 28.5324148 8.41881195 28.3893216 8.41881195 28.3893216 8.27582425"></polygon>
                <polygon id="Fill-84" points="29.0739438 8.27582425 29.0739438 8.41881195 28.9308506 8.41881195 28.9308506 8.62854833 29.0739438 8.62854833 29.0739438 8.77153603 29.2835747 8.77153603 29.2835747 8.62854833 29.4266678 8.62854833 29.4266678 8.41881195 29.2835747 8.41881195 29.2835747 8.27582425"></polygon>
                <polygon id="Fill-85" points="35.6936415 8.62856942 35.8367346 8.62856942 35.8367346 8.77145167 36.046471 8.77145167 36.046471 8.62856942 36.1894587 8.62856942 36.1894587 8.41883304 36.046471 8.41883304 36.046471 8.27584534 35.8367346 8.27584534 35.8367346 8.41883304 35.6936415 8.41883304"></polygon>
                <polygon id="Fill-86" points="33.7549033 8.77150439 33.7549033 8.62862214 33.8979965 8.62862214 33.8979965 8.41888576 33.7549033 8.41888576 33.7549033 8.27579262 33.5452724 8.27579262 33.5452724 8.41888576 33.4021793 8.41888576 33.4021793 8.62862214 33.5452724 8.62862214 33.5452724 8.77150439"></polygon>
                <polygon id="Fill-87" points="31.7566397 8.27582425 31.7566397 8.41881195 31.613652 8.41881195 31.613652 8.62854833 31.7566397 8.62854833 31.7566397 8.77153603 31.9662707 8.77153603 31.9662707 8.62854833 32.1094692 8.62854833 32.1094692 8.41881195 31.9662707 8.41881195 31.9662707 8.27582425"></polygon>
                <polygon id="Fill-88" points="30.8624921 8.27582425 30.8624921 8.41881195 30.7195044 8.41881195 30.7195044 8.62854833 30.8624921 8.62854833 30.8624921 8.77153603 31.072123 8.77153603 31.072123 8.62854833 31.2152162 8.62854833 31.2152162 8.41881195 31.072123 8.41881195 31.072123 8.27582425"></polygon>
                <polygon id="Fill-89" points="29.9680914 8.27582425 29.9680914 8.41881195 29.8249982 8.41881195 29.8249982 8.62854833 29.9680914 8.62854833 29.9680914 8.77153603 30.1778278 8.77153603 30.1778278 8.62854833 30.3208155 8.62854833 30.3208155 8.41881195 30.1778278 8.41881195 30.1778278 8.27582425"></polygon>
                <polygon id="Fill-90" points="32.6507873 8.27582425 32.6507873 8.41881195 32.5077996 8.41881195 32.5077996 8.62854833 32.6507873 8.62854833 32.6507873 8.77153603 32.8604183 8.77153603 32.8604183 8.62854833 33.0036169 8.62854833 33.0036169 8.41881195 32.8604183 8.41881195 32.8604183 8.27582425"></polygon>
                <path d="M30.2168014,29.3394728 L30.6866784,29.3394728 L30.6866784,27.6066432 L30.2168014,27.6066432 L30.2168014,29.3394728 Z M29.5177856,29.3394728 L30.007065,29.3394728 L30.007065,27.6066432 L29.5177856,27.6066432 L29.5177856,29.3394728 Z M22.2204569,23.1393322 L23.1845694,23.1393322 L25.2531459,23.1393322 L34.9081898,23.1393322 L36.9769772,23.1393322 L37.7588752,23.1393322 L37.7588752,29.3394728 L30.8964148,29.3394728 L30.8964148,27.3970123 L29.3081547,27.3970123 L29.3081547,29.3394728 L22.2204569,29.3394728 L22.2204569,23.1393322 Z M22.2204569,22.9294903 L23.1846749,22.9294903 L23.1846749,7.04752197 L22.2204569,7.04752197 L22.2204569,22.9294903 Z M24.3194025,11.5216872 L24.3194025,9.33595782 C24.3946924,9.28945518 24.7323374,9.05841828 24.7695606,8.63072056 C24.7990861,8.2911775 24.6210896,7.95637961 24.3229877,7.76815466 L24.3229877,7.04752197 L25.0435149,7.04752197 L25.0435149,11.5216872 L24.3194025,11.5216872 Z M24.2000351,7.93560633 C24.4405624,8.08070299 24.5838664,8.34611599 24.5606678,8.61247803 C24.5364148,8.89149385 24.3411248,9.06442882 24.247065,9.13244288 C24.1455185,9.07212654 23.9165905,8.90499121 23.8797891,8.6086819 C23.8472056,8.34843585 23.9747979,8.08481547 24.2000351,7.93560633 L24.2000351,7.93560633 Z M24.1132513,7.74485062 C23.8054482,7.93360281 23.6280844,8.28516696 23.6717399,8.6345167 C23.7164499,8.9940949 23.9668893,9.20172232 24.1097715,9.29314587 L24.1097715,11.5216872 L23.3943058,11.5216872 L23.3943058,7.04752197 L24.1132513,7.04752197 L24.1132513,7.74485062 Z M23.3943058,15.2196485 L25.0435149,15.2196485 L25.0435149,11.7313181 L23.3943058,11.7313181 L23.3943058,15.2196485 Z M23.3943058,15.7369772 L25.0435149,15.7369772 L25.0435149,15.4293849 L23.3943058,15.4293849 L23.3943058,15.7369772 Z M24.9196134,16.5678032 C24.966116,16.5139192 25.0073462,16.4543409 25.0435149,16.3893849 L25.0435149,16.7459051 C25.0072408,16.6810545 24.966116,16.6214763 24.9196134,16.5678032 L24.9196134,16.5678032 Z M23.5181019,16.5684359 C23.4715993,16.6223199 23.4304745,16.6818981 23.3943058,16.7469596 L23.3943058,16.3905448 C23.4304745,16.4553954 23.4715993,16.5148682 23.5181019,16.5684359 L23.5181019,16.5684359 Z M23.9366257,16.1558172 C23.8530053,16.2688576 23.7738137,16.3333919 23.6973638,16.3956063 C23.6872408,16.4038313 23.6778559,16.4132162 23.6678383,16.4214411 C23.5660808,16.3000703 23.4942707,16.1413708 23.4539895,15.9467135 L24.0581019,15.9467135 C24.0234095,16.0205272 23.9843937,16.0914938 23.9366257,16.1558172 L23.9366257,16.1558172 Z M24.380246,15.9467135 L24.9830931,15.9467135 C24.9429174,16.140949 24.8712127,16.2993322 24.7697715,16.4209139 C24.7600703,16.4127944 24.7508963,16.4037258 24.7409842,16.3956063 C24.6645343,16.3333919 24.5853427,16.2688576 24.5017223,16.1558172 C24.4539543,16.0914938 24.4149385,16.0205272 24.380246,15.9467135 L24.380246,15.9467135 Z M24.6086467,16.5582074 C24.6124429,16.5612654 24.6159227,16.5647452 24.6197188,16.5679086 C24.6157118,16.5711775 24.6118102,16.5750791 24.6078032,16.578348 C24.5253427,16.645413 24.4319156,16.7214411 24.3326889,16.8555712 C24.289877,16.9134622 24.2524429,16.9752548 24.218594,17.0393673 C24.1847452,16.9751494 24.1473111,16.9133568 24.1046046,16.8555712 C24.0052724,16.7214411 23.9119508,16.645413 23.8294903,16.578348 C23.8255888,16.5751845 23.8220035,16.5714938 23.8181019,16.5684359 C23.8220035,16.565167 23.8256942,16.5614763 23.8298067,16.5582074 C23.9122671,16.4910369 24.0056942,16.4149033 24.1051318,16.2806678 C24.1479438,16.2228822 24.1853779,16.1609842 24.2192267,16.0968717 C24.2530756,16.1609842 24.2905097,16.2228822 24.3332162,16.2806678 C24.4326538,16.4149033 24.5260808,16.4910369 24.6086467,16.5582074 L24.6086467,16.5582074 Z M23.3943058,20.5542707 L23.3943058,17.3301933 C23.4163445,17.2324429 23.4521968,17.1128647 23.5126186,16.9831634 C23.5623902,16.8760281 23.6174341,16.786819 23.6679438,16.7154306 C23.6746924,16.7213357 23.6848155,16.7301933 23.6970475,16.740949 C23.8242179,16.8525132 23.8447803,16.8718102 23.8650264,16.8939543 C23.8883304,16.9194728 23.9119508,16.9479438 23.935993,16.9804218 C24.0124429,17.0836555 24.0721265,17.2004921 24.1149385,17.3270299 L24.1149385,20.2719859 L24.3246749,20.2719859 L24.3246749,17.3218629 L24.3245694,17.3218629 C24.3669596,17.1975395 24.4255888,17.0823902 24.5011951,16.9804218 C24.5848155,16.8674868 24.6636907,16.8031634 24.7401406,16.740949 C24.7503691,16.7326186 24.7598594,16.7231283 24.7699824,16.7147979 C24.8205975,16.7860808 24.8757469,16.8753954 24.9256239,16.9827417 C24.9860457,17.1128647 25.0217926,17.2326538 25.0435149,17.3302988 L25.0435149,20.5542707 L23.3943058,20.5542707 Z M24.1131459,21.0388049 L24.1131459,22.9295958 L23.3943058,22.9295958 L23.3943058,20.764007 L25.0435149,20.764007 L25.0435149,22.9295958 L24.3228822,22.9295958 L24.3228822,21.0388049 L24.1131459,21.0388049 Z M25.2531459,22.9295958 L25.9294903,22.9295958 L25.9294903,7.04762742 L25.2531459,7.04762742 L25.2531459,22.9295958 Z M33.7624956,7.75592267 L33.7624956,7.04752197 L34.0151494,7.04752197 L34.0151494,7.98126538 C33.9463972,7.89311072 33.8603515,7.81739895 33.7624956,7.75592267 L33.7624956,7.75592267 Z M33.7590158,11.5216872 L33.7590158,9.32551845 C33.7973989,9.30189807 33.9094903,9.22439367 34.0151494,9.09216169 L34.0151494,11.5216872 L33.7590158,11.5216872 Z M26.3952548,9.28850615 L26.3952548,11.5216872 L26.1391213,11.5216872 L26.1391213,9.06463972 C26.2272759,9.17209139 26.3256591,9.24485062 26.3952548,9.28850615 L26.3952548,9.28850615 Z M26.3988401,7.72681898 C26.2969772,7.78755712 26.2097715,7.86579965 26.1391213,7.95616872 L26.1391213,7.04752197 L26.3988401,7.04752197 L26.3988401,7.72681898 Z M26.836239,8.60098418 C26.8118805,8.88 26.6168014,9.05304042 26.5225308,9.12094903 C26.4209842,9.06031634 26.1919508,8.89275923 26.1551494,8.59718805 C26.1227768,8.33704745 26.2501582,8.07342707 26.4753954,7.92432337 C26.7159227,8.06942004 26.8594376,8.33462214 26.836239,8.60098418 L26.836239,8.60098418 Z M27.2931459,7.72776801 C27.1365554,7.82140598 27.0130756,7.95616872 26.9345167,8.11265378 C26.858594,7.97335677 26.7469244,7.85251318 26.608471,7.76288225 L26.608471,7.04752197 L27.2931459,7.04752197 L27.2931459,7.72776801 Z M27.2895606,9.28766257 L27.2895606,11.5216872 L26.6049912,11.5216872 L26.6049912,9.31824253 C26.6698418,9.27637961 26.8388752,9.1513181 26.949174,8.94052724 C27.0502988,9.11673111 27.1958172,9.2286116 27.2895606,9.28766257 L27.2895606,9.28766257 Z M27.7318102,8.60098418 C27.7075571,8.88073814 27.512478,9.05325132 27.4183128,9.12115993 C27.3166608,9.06042179 27.0877329,8.89286467 27.0509315,8.59718805 C27.0184534,8.33704745 27.1458348,8.07342707 27.3710721,7.92432337 C27.6115993,8.06942004 27.7551142,8.33462214 27.7318102,8.60098418 L27.7318102,8.60098418 Z M28.1873462,7.72871705 C28.0315993,7.82235501 27.9085413,7.95669596 27.8301933,8.11265378 C27.7540598,7.97293497 27.6418629,7.85177504 27.5027768,7.76203866 L27.5027768,7.04752197 L28.1873462,7.04752197 L28.1873462,7.72871705 Z M28.1836555,9.28660808 L28.1836555,11.5216872 L27.499297,11.5216872 L27.499297,9.31908612 C27.5628822,9.27838313 27.7336028,9.15342707 27.8448506,8.94084359 C27.9455536,9.11620387 28.0898067,9.22755712 28.1836555,9.28660808 L28.1836555,9.28660808 Z M28.6274868,8.60098418 C28.6032337,8.88010545 28.4079438,9.05304042 28.3139895,9.12115993 C28.2123374,9.06073814 27.9834095,8.89349736 27.9466081,8.59718805 C27.9141301,8.33704745 28.0416169,8.07342707 28.2668541,7.92432337 C28.5073814,8.06942004 28.6506854,8.33462214 28.6274868,8.60098418 L28.6274868,8.60098418 Z M29.0815466,7.72977153 C28.9264323,7.82330404 28.8039016,7.9572232 28.7258699,8.11265378 C28.64942,7.97251318 28.5368014,7.85103691 28.3970826,7.76119508 L28.3970826,7.04752197 L29.0815466,7.04752197 L29.0815466,7.72977153 Z M29.0779613,9.2857645 L29.0779613,11.5216872 L28.3933919,11.5216872 L28.3933919,9.3201406 C28.4551845,9.28080844 28.6280141,9.15543058 28.7404218,8.94073814 C28.840703,9.11536028 28.984007,9.22639719 29.0779613,9.2857645 L29.0779613,9.2857645 Z M29.523058,8.60098418 C29.4988049,8.88010545 29.3038313,9.05304042 29.2095606,9.12115993 C29.1080141,9.06073814 28.8790861,8.89349736 28.8422847,8.59718805 C28.8097012,8.33704745 28.937188,8.07342707 29.1625308,7.92432337 C29.4031634,8.06942004 29.5464675,8.33462214 29.523058,8.60098418 L29.523058,8.60098418 Z M29.9757469,7.73061511 C29.8214763,7.82414763 29.6994728,7.95764499 29.621652,8.11244288 C29.5448858,7.97188049 29.4316344,7.85019332 29.2911775,7.76024605 L29.2911775,7.04752197 L29.9757469,7.04752197 L29.9757469,7.73061511 Z M29.9721617,9.28481547 L29.9721617,11.5216872 L29.2876977,11.5216872 L29.2876977,9.32098418 C29.3478032,9.2829174 29.5225308,9.15743409 29.635993,8.94084359 C29.7357469,9.11483304 29.8781019,9.22534271 29.9721617,9.28481547 L29.9721617,9.28481547 Z M30.4188401,8.60098418 C30.394587,8.88031634 30.199297,9.05304042 30.1054482,9.12115993 C30.0037961,9.06084359 29.7747627,8.89413005 29.7379613,8.59718805 C29.7054833,8.33704745 29.8329701,8.07342707 30.0581019,7.92432337 C30.2987346,8.06942004 30.4420387,8.33472759 30.4188401,8.60098418 L30.4188401,8.60098418 Z M30.8701582,7.7316696 C30.7165202,7.82520211 30.5949385,7.95827768 30.5173286,8.11275923 C30.440246,7.97156415 30.3264675,7.84924429 30.1853779,7.75929701 L30.1853779,7.04752197 L30.8701582,7.04752197 L30.8701582,7.7316696 Z M30.8665729,9.28376098 L30.8665729,11.5216872 L30.1817926,11.5216872 L30.1817926,9.32203866 C30.2401054,9.28534271 30.4172583,9.15964851 30.5319859,8.94063269 C30.6313181,9.11346221 30.7728295,9.22386643 30.8665729,9.28376098 L30.8665729,9.28376098 Z M31.3143058,8.60098418 C31.2903691,8.88010545 31.0950791,9.05304042 31.0009139,9.12094903 C30.8993673,9.06031634 30.6705448,8.89275923 30.633638,8.59718805 C30.6012654,8.336942 30.7287522,8.07332162 30.953884,7.92432337 C31.1945167,8.06942004 31.3378207,8.33462214 31.3143058,8.60098418 L31.3143058,8.60098418 Z M31.7642531,7.73251318 C31.6114587,7.82594025 31.4902988,7.95859402 31.4128998,8.11244288 C31.3358172,7.97093146 31.2215114,7.84850615 31.0798946,7.75845343 L31.0798946,7.04752197 L31.7642531,7.04752197 L31.7642531,7.73251318 Z M31.7607733,9.2829174 L31.7607733,11.5216872 L31.0763093,11.5216872 L31.0763093,9.3227768 C31.1332513,9.28702988 31.3118805,9.16112478 31.4274517,8.94084359 C31.5262566,9.11325132 31.6666081,9.22302285 31.7607733,9.2829174 L31.7607733,9.2829174 Z M32.2101933,8.60098418 C32.1858348,8.88031634 31.9906503,9.05304042 31.896696,9.12115993 C31.7951494,9.06084359 31.5663269,8.89413005 31.5293146,8.59718805 C31.4967311,8.33704745 31.6242179,8.07342707 31.8495606,7.92432337 C32.0899824,8.06942004 32.2336028,8.33462214 32.2101933,8.60098418 L32.2101933,8.60098418 Z M32.6585589,7.73356766 C32.5062917,7.82699473 32.3858699,7.95912127 32.3086819,8.11254833 C32.2311775,7.97040422 32.1163445,7.84776801 31.9739895,7.75760984 L31.9739895,7.04752197 L32.6585589,7.04752197 L32.6585589,7.73356766 Z M32.6548682,9.28165202 L32.6548682,11.5216872 L31.9704042,11.5216872 L31.9704042,9.32372583 C32.0254482,9.28956063 32.2066081,9.16333919 32.3233392,8.94063269 C32.4216169,9.11177504 32.5610193,9.22144112 32.6548682,9.28165202 L32.6548682,9.28165202 Z M33.1059754,8.60098418 C33.0819332,8.88 32.8867487,9.05304042 32.7922671,9.12094903 C32.6906151,9.06031634 32.4618981,8.89275923 32.4249912,8.59718805 C32.3925132,8.33704745 32.52,8.07342707 32.7453427,7.92432337 C32.9858699,8.06942004 33.1290685,8.33472759 33.1059754,8.60098418 L33.1059754,8.60098418 Z M33.5528647,7.7343058 C33.4013357,7.82762742 33.2812302,7.95943761 33.2042531,8.11244288 C33.1264323,7.96987698 33.0110721,7.84681898 32.8681898,7.75666081 L32.8681898,7.04752197 L33.5528647,7.04752197 L33.5528647,7.7343058 Z M33.5493849,9.28070299 L33.5493849,11.5216872 L32.8646046,11.5216872 L32.8646046,9.32467487 C32.9178559,9.29177504 33.1013357,9.16523726 33.2190158,8.94063269 C33.3169772,9.11093146 33.4554306,9.2202812 33.5493849,9.28070299 L33.5493849,9.28070299 Z M33.3205624,8.59718805 C33.2880844,8.33704745 33.4155712,8.07342707 33.6408084,7.92432337 C33.8813357,8.06942004 34.0249561,8.33462214 34.0014411,8.60098418 C33.9773989,8.88010545 33.7822144,9.05304042 33.6880492,9.12094903 C33.5863972,9.06031634 33.3575747,8.89275923 33.3205624,8.59718805 L33.3205624,8.59718805 Z M26.1391213,15.2196485 L34.0150439,15.2196485 L34.0150439,11.7313181 L26.1391213,11.7313181 L26.1391213,15.2196485 Z M26.1391213,15.7561687 L34.0150439,15.7561687 L34.0150439,15.4293849 L26.1391213,15.4293849 L26.1391213,15.7561687 Z M26.6945167,16.586362 C26.6629877,16.6228471 26.6316696,16.6595431 26.6049912,16.7011951 L26.6049912,16.4719508 C26.6316696,16.5134974 26.6629877,16.5500879 26.6945167,16.586362 L26.6945167,16.586362 Z M27.1130404,16.1737434 C27.02942,16.2867838 26.9502285,16.3512127 26.8737786,16.4134271 C26.8635501,16.4217575 26.8541652,16.4311424 26.8441476,16.4393673 C26.7426011,16.3179965 26.6708963,16.1598243 26.6306151,15.9657996 L27.233884,15.9657996 C27.199297,16.039297 27.1602812,16.1098418 27.1130404,16.1737434 L27.1130404,16.1737434 Z M27.7849561,16.5760281 C27.7888576,16.5791916 27.7923374,16.5827768 27.7961336,16.5858348 C27.792232,16.5891037 27.7885413,16.5926889 27.7845343,16.5959578 C27.7019684,16.6630228 27.6084359,16.7391564 27.5091037,16.8734974 C27.4662917,16.931283 27.4288576,16.9930756 27.3949033,17.0572935 C27.3610545,16.9930756 27.3236204,16.931283 27.2809139,16.8734974 C27.1815817,16.7393673 27.0880492,16.6632337 27.0055888,16.5960633 C27.0017926,16.5930053 26.9982074,16.58942 26.9944112,16.5862566 C26.9984183,16.5829877 27.002109,16.5794025 27.006116,16.5760281 C27.0885764,16.5088576 27.182109,16.4328295 27.2815466,16.2984886 C27.3241476,16.2408084 27.3615817,16.1790158 27.395536,16.1147979 C27.4293849,16.1789104 27.466819,16.240703 27.5096309,16.2984886 C27.6089631,16.4328295 27.7024956,16.5088576 27.7849561,16.5760281 L27.7849561,16.5760281 Z M27.9462917,16.4388401 C27.9364851,16.4307206 27.9273111,16.4215466 27.9173989,16.4134271 C27.840949,16.3512127 27.7617575,16.2867838 27.6780316,16.1737434 C27.63058,16.1096309 27.5916696,16.0391916 27.557188,15.9657996 L28.159297,15.9657996 C28.1190158,16.1595079 28.0474165,16.3175747 27.9462917,16.4388401 L27.9462917,16.4388401 Z M28.4852373,16.586362 C28.4057293,16.6784183 28.340246,16.7857645 28.2910018,16.9101933 C28.2415466,16.7853427 28.1758524,16.677891 28.0960281,16.5857293 C28.175536,16.4936731 28.2411248,16.3864323 28.2903691,16.2618981 C28.3397188,16.3867487 28.4055185,16.4943058 28.4852373,16.586362 L28.4852373,16.586362 Z M28.9038664,16.1737434 C28.8200351,16.2869947 28.7445343,16.348471 28.6643937,16.413638 C28.6542707,16.4218629 28.6449912,16.4311424 28.6349736,16.4393673 C28.5334271,16.3179965 28.4617223,16.1598243 28.4214411,15.9657996 L29.0248155,15.9657996 C28.9900176,16.039297 28.9511072,16.1097364 28.9038664,16.1737434 L28.9038664,16.1737434 Z M29.5757821,16.5760281 C29.5795782,16.5791916 29.583058,16.5826714 29.5869596,16.5858348 C29.583058,16.5889982 29.5793673,16.5925835 29.5754657,16.5958524 C29.4930053,16.6630228 29.3993673,16.739051 29.2997188,16.8734974 C29.2570123,16.9313884 29.2195782,16.993181 29.1858348,17.0572935 C29.1519859,16.9930756 29.1145518,16.931283 29.0717399,16.8734974 C28.9723023,16.7393673 28.8788752,16.6632337 28.7964148,16.5960633 C28.7925132,16.5930053 28.7890334,16.58942 28.7852373,16.5862566 C28.7891388,16.5830931 28.7928295,16.5794025 28.7967311,16.5761336 C28.8794025,16.5090685 28.9728295,16.4328295 29.0722671,16.2984886 C29.1149736,16.2408084 29.1524077,16.1790158 29.186362,16.1147979 C29.2202109,16.1790158 29.257645,16.2408084 29.300246,16.2984886 C29.3996837,16.4327241 29.4932162,16.5088576 29.5757821,16.5760281 L29.5757821,16.5760281 Z M29.7371178,16.4387346 C29.7273111,16.4306151 29.7181371,16.4214411 29.708225,16.4133216 C29.6316696,16.3511072 29.552478,16.2867838 29.4689631,16.1737434 C29.4216169,16.1097364 29.3827065,16.039297 29.3480141,15.9657996 L29.950123,15.9657996 C29.9099473,16.1595079 29.838348,16.3174692 29.7371178,16.4387346 L29.7371178,16.4387346 Z M30.2760633,16.586362 C30.1965554,16.6784183 30.1310721,16.7858699 30.0817223,16.9104042 C30.0323726,16.7855536 29.9667838,16.6779965 29.8869596,16.5857293 C29.9664675,16.4936731 30.0319508,16.3862214 30.0811951,16.2615817 C30.1306503,16.3865378 30.196239,16.4940949 30.2760633,16.586362 L30.2760633,16.586362 Z M30.694587,16.1737434 C30.6110721,16.2867838 30.5318805,16.3511072 30.4554306,16.4133216 C30.4452021,16.421652 30.4357118,16.4310369 30.4257996,16.4393673 C30.3242531,16.3179965 30.2526538,16.1598243 30.2122671,15.9657996 L30.8154306,15.9657996 C30.7808436,16.039297 30.7419332,16.1097364 30.694587,16.1737434 L30.694587,16.1737434 Z M31.3665026,16.5760281 C31.3704042,16.5791916 31.373884,16.5827768 31.3776801,16.5858348 C31.3736731,16.5891037 31.3699824,16.5927944 31.3659754,16.5960633 C31.2834095,16.6632337 31.189877,16.7393673 31.0904394,16.8734974 C31.0477329,16.931283 31.0105097,16.9930756 30.9765554,17.057188 C30.942812,16.9930756 30.9054833,16.931283 30.8627768,16.8734974 C30.7634446,16.7393673 30.6697012,16.6632337 30.5872408,16.5960633 C30.5834446,16.5930053 30.5799649,16.58942 30.5759578,16.5862566 C30.5801757,16.5829877 30.583761,16.5794025 30.5878735,16.5760281 C30.6703339,16.5088576 30.7639719,16.4327241 30.863304,16.2984886 C30.9057996,16.2408084 30.9433392,16.1789104 30.9770826,16.1147979 C31.0109315,16.1789104 31.048471,16.2408084 31.0909666,16.2984886 C31.1904042,16.4327241 31.2840422,16.5088576 31.3665026,16.5760281 L31.3665026,16.5760281 Z M31.5279438,16.4388401 C31.5181371,16.4306151 31.5088576,16.4214411 31.4988401,16.4133216 C31.4224956,16.3511072 31.343304,16.2867838 31.2597891,16.1737434 C31.2124429,16.1097364 31.1735325,16.039297 31.1388401,15.9657996 L31.7408436,15.9657996 C31.7007733,16.1595079 31.629174,16.3174692 31.5279438,16.4388401 L31.5279438,16.4388401 Z M32.0668893,16.5864675 C31.9873814,16.6785237 31.9217926,16.7858699 31.8725483,16.9104042 C31.823304,16.7855536 31.7575044,16.6779965 31.6777856,16.5857293 C31.7572935,16.4936731 31.8227768,16.3862214 31.8720211,16.2616872 C31.9212654,16.3865378 31.987065,16.4943058 32.0668893,16.5864675 L32.0668893,16.5864675 Z M32.485413,16.1737434 C32.4017926,16.2869947 32.3226011,16.3512127 32.2461511,16.4134271 C32.2360281,16.4217575 32.2266432,16.4311424 32.2165202,16.4393673 C32.1149736,16.3179965 32.0434798,16.1598243 32.0030931,15.9657996 L32.6061511,15.9657996 C32.5715641,16.039297 32.5326538,16.1097364 32.485413,16.1737434 L32.485413,16.1737434 Z M33.1575395,16.5761336 C33.1613357,16.579297 33.1648155,16.5827768 33.1685062,16.5858348 C33.1644991,16.5891037 33.1608084,16.5927944 33.156696,16.5960633 C33.0742355,16.6632337 32.9805975,16.7393673 32.8812654,16.8734974 C32.8386643,16.931283 32.8012302,16.9930756 32.7673814,17.057188 C32.7335325,16.9930756 32.6962039,16.931283 32.6536028,16.8734974 C32.5538489,16.739051 32.4603163,16.6630228 32.3777504,16.5958524 C32.3739543,16.5927944 32.37058,16.5893146 32.3668893,16.5862566 C32.3708963,16.5829877 32.374587,16.5794025 32.378594,16.5760281 C32.4610545,16.5088576 32.5543761,16.4328295 32.6541301,16.2984886 C32.6966257,16.2408084 32.7340598,16.1789104 32.7680141,16.1147979 C32.8018629,16.1789104 32.839297,16.240703 32.882109,16.2983831 C32.9814411,16.4328295 33.0748682,16.5088576 33.1575395,16.5761336 L33.1575395,16.5761336 Z M33.5493849,16.4865026 L33.5493849,16.6849561 C33.5252373,16.6487873 33.4963445,16.617891 33.4685062,16.5857293 C33.496239,16.5535677 33.5252373,16.5226714 33.5493849,16.4865026 L33.5493849,16.4865026 Z M33.3187698,16.4387346 C33.3089631,16.4307206 33.2998946,16.4215466 33.2899824,16.4134271 C33.2132162,16.3512127 33.1343409,16.2869947 33.050826,16.1737434 C33.0033743,16.1097364 32.9643585,16.039297 32.9296661,15.9657996 L33.5319859,15.9657996 C33.4915993,16.1595079 33.42,16.3174692 33.3187698,16.4387346 L33.3187698,16.4387346 Z M26.1391213,20.5542707 L26.1391213,15.9657996 L26.3952548,15.9657996 L26.3952548,20.2719859 L26.6049912,20.2719859 L26.6049912,17.3514938 C26.6360984,17.0895606 26.718348,16.8841476 26.8442531,16.7333568 C26.8976098,16.7723726 26.968471,16.8304745 27.0412302,16.9115641 C27.0519859,16.9235852 27.0817223,16.9569069 27.1123023,16.9982425 C27.1879086,17.1003163 27.2469596,17.2158875 27.2895606,17.3407381 L27.2895606,20.2719859 L27.499297,20.2719859 L27.499297,17.3433743 C27.5418981,17.2174692 27.6014763,17.1010545 27.6775044,16.9982425 C27.7110369,16.9528998 27.7439367,16.9167311 27.7556415,16.9038664 C27.8261863,16.8264675 27.8945167,16.77058 27.9463972,16.7327241 C28.0704042,16.8809842 28.1513884,17.0826011 28.1836555,17.3384183 L28.1836555,20.2719859 L28.3933919,20.2719859 L28.3933919,17.3520211 L28.3957118,17.352232 C28.4269244,17.0899824 28.5090685,16.8843585 28.6350791,16.7333568 C28.6883304,16.7723726 28.7591916,16.8303691 28.8318453,16.9114587 C28.8440773,16.9250615 28.8732865,16.9577504 28.9032337,16.9982425 C28.9777856,17.099051 29.0357821,17.2128295 29.0779613,17.3352548 L29.0779613,20.2719859 L29.2876977,20.2719859 L29.2876977,17.3493849 C29.3302988,17.2215817 29.3906151,17.1033743 29.4684359,16.9982425 C29.5026011,16.9521617 29.5365554,16.9149385 29.5471002,16.9034446 C29.6174341,16.8262566 29.6856591,16.77058 29.7372232,16.7327241 C29.8590158,16.878348 29.9386292,17.0758524 29.9721617,17.3249209 L29.9721617,20.2719859 L30.1817926,20.2719859 L30.1817926,17.3515993 C30.1907557,17.2623902 30.2128998,17.1384886 30.27058,17.0010896 C30.3186643,16.8866784 30.3767663,16.7974692 30.4259051,16.7333568 C30.4793673,16.7725835 30.5505448,16.8308963 30.6236204,16.9124077 C30.6369069,16.9271705 30.6649561,16.9590158 30.6940598,16.9982425 C30.7674517,17.0972583 30.8242882,17.2094552 30.8665729,17.329877 L30.8665729,20.2719859 L31.0763093,20.2719859 L31.0763093,17.3532865 L31.0768366,17.3534974 C31.1196485,17.2234798 31.1809139,17.104007 31.2591564,16.9982425 C31.2904745,16.9560633 31.3213708,16.9216872 31.3297012,16.9124077 C31.4029877,16.8304745 31.4743761,16.7720562 31.5280492,16.7328295 C31.6492091,16.8777153 31.728717,17.0742707 31.7625659,17.3218629 L31.7607733,17.3218629 L31.7607733,20.2719859 L31.9704042,20.2719859 L31.9704042,17.351283 C31.9802109,17.2614411 32.0036204,17.1378559 32.061406,17.0010896 C32.1097012,16.8871002 32.1675923,16.7979965 32.2167311,16.7333568 C32.2682953,16.7711072 32.3360984,16.8266784 32.4062214,16.9034446 C32.4246749,16.9235852 32.4545167,16.9573286 32.4847803,16.9982425 C32.5570123,17.0955712 32.6127944,17.2058699 32.6548682,17.3240773 L32.6548682,20.2719859 L32.8646046,20.2719859 L32.8646046,17.3525483 C32.9260808,17.1788752 33.0010545,17.0636204 33.0499824,16.9982425 C33.0818278,16.9556415 33.1123023,16.9214763 33.1204218,16.9124077 C33.1936028,16.8306854 33.2649912,16.7721617 33.3187698,16.7328295 C33.436239,16.873181 33.5138489,17.0626714 33.5493849,17.2994025 L33.5493849,20.2719859 L33.7590158,20.2719859 L33.7590158,15.9657996 L34.0151494,15.9657996 L34.0151494,20.5542707 L26.1391213,20.5542707 Z M33.5452724,21.0388049 L33.5452724,22.9295958 L32.8604921,22.9295958 L32.8604921,21.0388049 L32.6507557,21.0388049 L32.6507557,22.9295958 L31.9662917,22.9295958 L31.9662917,21.0388049 L31.7566608,21.0388049 L31.7566608,22.9295958 L31.0721968,22.9295958 L31.0721968,21.0388049 L30.8624605,21.0388049 L30.8624605,22.9295958 L30.1777856,22.9295958 L30.1777856,21.0388049 L29.9680492,21.0388049 L29.9680492,22.9295958 L29.2835852,22.9295958 L29.2835852,21.0388049 L29.0739543,21.0388049 L29.0739543,22.9295958 L28.3892794,22.9295958 L28.3892794,21.0388049 L28.1795431,21.0388049 L28.1795431,22.9295958 L27.4951845,22.9295958 L27.4951845,21.0388049 L27.2854482,21.0388049 L27.2854482,22.9295958 L26.6008787,22.9295958 L26.6008787,21.0388049 L26.3911424,21.0388049 L26.3911424,22.9295958 L26.1391213,22.9295958 L26.1391213,20.764007 L34.0151494,20.764007 L34.0151494,22.9295958 L33.7549033,22.9295958 L33.7549033,21.0388049 L33.5452724,21.0388049 Z M34.2248858,22.9295958 L34.9081898,22.9295958 L34.9081898,7.04762742 L34.2248858,7.04762742 L34.2248858,22.9295958 Z M36.0419684,11.5216872 L36.0419684,9.33036907 C36.1168366,9.28407733 36.4549033,9.05304042 36.4925483,8.62481547 C36.5219684,8.28537786 36.343761,7.95047452 36.0456591,7.76235501 L36.0456591,7.04752197 L36.7671353,7.04752197 L36.7671353,11.5216872 L36.0419684,11.5216872 Z M35.922812,7.93001757 C36.1632337,8.07511424 36.3065378,8.34052724 36.2833392,8.60678383 C36.2590861,8.88579965 36.0639016,9.05873462 35.9697364,9.12664323 C35.8681898,9.06611599 35.6393673,8.89845343 35.6024605,8.60288225 C35.5699824,8.3428471 35.6974692,8.07922671 35.922812,7.93001757 L35.922812,7.93001757 Z M35.8359227,7.73926186 C35.528225,7.92822496 35.3507557,8.27957821 35.3944112,8.6288225 C35.4392267,8.98776801 35.6895606,9.19571178 35.8323374,9.28734622 L35.8323374,11.5216872 L35.1179262,11.5216872 L35.1179262,7.04752197 L35.8359227,7.04752197 L35.8359227,7.73926186 Z M35.1179262,15.2196485 L36.7672408,15.2196485 L36.7672408,11.7313181 L35.1179262,11.7313181 L35.1179262,15.2196485 Z M35.1179262,15.7465729 L36.7672408,15.7465729 L36.7672408,15.4293849 L35.1179262,15.4293849 L35.1179262,15.7465729 Z M36.6432337,16.5952197 C36.6898418,16.5413357 36.7310721,16.481652 36.7671353,16.4164851 L36.7671353,16.7737434 C36.7310721,16.7087873 36.6897364,16.6491037 36.6432337,16.5952197 L36.6432337,16.5952197 Z M35.2416169,16.5960633 C35.1951142,16.6498418 35.1540949,16.7095255 35.1179262,16.7744815 L35.1179262,16.4179613 C35.1540949,16.482812 35.1951142,16.5423902 35.2416169,16.5960633 L35.2416169,16.5960633 Z M35.6600351,16.1833392 C35.5765202,16.2964851 35.4973286,16.3608084 35.4209842,16.4230228 C35.4106503,16.4313533 35.4012654,16.4407381 35.3913533,16.4489631 C35.2864323,16.3235852 35.2139895,16.1587698 35.1743409,15.9563093 L35.7891037,15.9563093 C35.7526186,16.0368717 35.7114938,16.1141652 35.6600351,16.1833392 L35.6600351,16.1833392 Z M36.0963796,15.9563093 L36.7100879,15.9563093 C36.6705448,16.158348 36.5981019,16.323058 36.4936028,16.4483304 C36.4836907,16.4402109 36.4746221,16.4310369 36.46471,16.4230228 C36.3882601,16.3608084 36.3090685,16.2964851 36.2253427,16.1831283 C36.1737786,16.113638 36.1326538,16.0365554 36.0963796,15.9563093 L36.0963796,15.9563093 Z M36.3322671,16.5856239 C36.3360633,16.5886819 36.3396485,16.5922671 36.3434446,16.5953251 C36.3394376,16.598594 36.3357469,16.6022847 36.3317399,16.6055536 C36.2489631,16.6728295 36.1556415,16.7488576 36.0565202,16.8830931 C36.0137083,16.9407733 35.9760633,17.0026714 35.942109,17.0668893 C35.9083656,17.0026714 35.8709315,16.9408787 35.828225,16.8831986 C35.7286819,16.7486467 35.6349385,16.6725132 35.5525835,16.6054482 C35.5487873,16.6022847 35.5453076,16.5989104 35.5415114,16.5958524 C35.5455185,16.5925835 35.5493146,16.5888928 35.5534271,16.5856239 C35.6357821,16.5184534 35.7292091,16.4424253 35.8285413,16.3081898 C35.8713533,16.2506151 35.9088928,16.188717 35.9427417,16.1244991 C35.9764851,16.1885062 36.0139192,16.2502988 36.0567311,16.3080844 C36.1561687,16.4424253 36.2498067,16.5184534 36.3322671,16.5856239 L36.3322671,16.5856239 Z M35.1179262,20.5542707 L35.1179262,17.3576098 C35.1399649,17.2599649 35.1759227,17.1403866 35.236239,17.01058 C35.2860105,16.9035501 35.340949,16.8144464 35.3914587,16.7429525 C35.4429174,16.7805975 35.5106151,16.8360633 35.5807381,16.9128295 C35.5919156,16.9250615 35.6254482,16.9619684 35.6595079,17.0079438 C35.7362742,17.1113884 35.7958524,17.2283304 35.8386643,17.3551845 L35.8386643,20.2719859 L36.0482953,20.2719859 L36.0482953,17.3486467 C36.0908963,17.2245343 36.1496309,17.1095958 36.2250264,17.0078383 C36.2558172,16.9662917 36.2855536,16.9328647 36.296942,16.9202109 C36.3697012,16.8393322 36.4403515,16.7813357 36.4936028,16.7423199 C36.5442179,16.8137083 36.5993673,16.9029174 36.6492443,17.0102636 C36.7096661,17.1403866 36.745413,17.2601757 36.7671353,17.3578207 L36.7671353,20.5542707 L35.1179262,20.5542707 Z M35.8367663,21.0388049 L35.8367663,22.9295958 L35.1179262,22.9295958 L35.1179262,20.764007 L36.7671353,20.764007 L36.7671353,22.9295958 L36.0463972,22.9295958 L36.0463972,21.0388049 L35.8367663,21.0388049 Z M22.2204569,6.83789104 L37.7588752,6.83789104 L37.7588752,5.1056942 L22.2204569,5.1056942 L22.2204569,6.83789104 Z M22.2204569,4.89606327 L22.5157118,4.89606327 L22.5157118,4.54660808 L22.2204569,4.54660808 L22.2204569,4.89606327 Z M22.7254482,4.89606327 L23.154833,4.89606327 L23.154833,4.54660808 L22.7254482,4.54660808 L22.7254482,4.89606327 Z M23.3645694,4.89606327 L23.7941652,4.89606327 L23.7941652,4.54660808 L23.3645694,4.54660808 L23.3645694,4.89606327 Z M24.0039016,4.89606327 L24.4334974,4.89606327 L24.4334974,4.54660808 L24.0039016,4.54660808 L24.0039016,4.89606327 Z M24.6431283,4.89606327 L25.0727241,4.89606327 L25.0727241,4.54660808 L24.6431283,4.54660808 L24.6431283,4.89606327 Z M25.2824605,4.89606327 L25.7120562,4.89606327 L25.7120562,4.54660808 L25.2824605,4.54660808 L25.2824605,4.89606327 Z M25.9216872,4.89606327 L26.351283,4.89606327 L26.351283,4.54660808 L25.9216872,4.54660808 L25.9216872,4.89606327 Z M26.5610193,4.89606327 L26.9906151,4.89606327 L26.9906151,4.54660808 L26.5610193,4.54660808 L26.5610193,4.89606327 Z M27.2003515,4.89606327 L27.6299473,4.89606327 L27.6299473,4.54660808 L27.2003515,4.54660808 L27.2003515,4.89606327 Z M27.8395782,4.89606327 L28.269174,4.89606327 L28.269174,4.54660808 L27.8395782,4.54660808 L27.8395782,4.89606327 Z M28.4789104,4.89606327 L28.9085062,4.89606327 L28.9085062,4.54660808 L28.4789104,4.54660808 L28.4789104,4.89606327 Z M29.1182425,4.89606327 L29.5476274,4.89606327 L29.5476274,4.54660808 L29.1182425,4.54660808 L29.1182425,4.89606327 Z M29.7572583,4.89606327 L30.187065,4.89606327 L30.187065,4.54660808 L29.7572583,4.54660808 L29.7572583,4.89606327 Z M30.3968014,4.89606327 L30.8261863,4.89606327 L30.8261863,4.54660808 L30.3968014,4.54660808 L30.3968014,4.89606327 Z M31.0359227,4.89606327 L31.4656239,4.89606327 L31.4656239,4.54660808 L31.0359227,4.54660808 L31.0359227,4.89606327 Z M31.6753603,4.89606327 L32.1048506,4.89606327 L32.1048506,4.54660808 L31.6753603,4.54660808 L31.6753603,4.89606327 Z M32.3144815,4.89606327 L32.7441828,4.89606327 L32.7441828,4.54660808 L32.3144815,4.54660808 L32.3144815,4.89606327 Z M32.9539192,4.89606327 L33.3834095,4.89606327 L33.3834095,4.54660808 L32.9539192,4.54660808 L32.9539192,4.89606327 Z M33.5930404,4.89606327 L34.0227417,4.89606327 L34.0227417,4.54660808 L33.5930404,4.54660808 L33.5930404,4.89606327 Z M34.232478,4.89606327 L34.6619684,4.89606327 L34.6619684,4.54660808 L34.232478,4.54660808 L34.232478,4.89606327 Z M34.8715993,4.89606327 L35.3010896,4.89606327 L35.3010896,4.54660808 L34.8715993,4.54660808 L34.8715993,4.89606327 Z M35.510826,4.89606327 L35.9405272,4.89606327 L35.9405272,4.54660808 L35.510826,4.54660808 L35.510826,4.89606327 Z M36.1501582,4.89606327 L36.5796485,4.89606327 L36.5796485,4.54660808 L36.1501582,4.54660808 L36.1501582,4.89606327 Z M36.7893849,4.89606327 L37.2190861,4.89606327 L37.2190861,4.54660808 L36.7893849,4.54660808 L36.7893849,4.89606327 Z M22.2204569,4.33697715 L37.7588752,4.33697715 L37.7588752,0.20973638 L22.2204569,0.20973638 L22.2204569,4.33697715 Z M37.428717,4.89606327 L37.7588752,4.89606327 L37.7588752,4.54660808 L37.428717,4.54660808 L37.428717,4.89606327 Z M36.9769772,22.9295958 L37.7588752,22.9295958 L37.7588752,7.04762742 L36.9769772,7.04762742 L36.9769772,22.9295958 Z M46.4716344,29.3394728 L37.9685062,29.3394728 L37.9685062,23.1393322 L37.9685062,6.83799649 L37.9685062,5.1056942 L38.2631283,5.1056942 L38.2631283,4.89606327 L37.9685062,4.89606327 L37.9685062,4.54660808 L38.2631283,4.54660808 L38.2631283,4.3368717 L37.9685062,4.3368717 L37.9685062,0.20973638 L38.2631283,0.20973638 L38.2631283,0 L37.9685062,0 L22.0107206,0 L21.7160984,0 L21.7160984,0.20973638 L22.0107206,0.20973638 L22.0107206,4.3368717 L21.7160984,4.3368717 L21.7160984,4.54660808 L22.0107206,4.54660808 L22.0107206,4.89606327 L21.7160984,4.89606327 L21.7160984,5.1056942 L22.0107206,5.1056942 L22.0107206,6.83799649 L22.0107206,23.1393322 L22.0107206,29.3394728 L13.5072759,29.3394728 L13.5072759,29.9499121 L46.4716344,29.9499121 L46.4716344,29.3394728 Z" id="Fill-91"></path>
                <text id="" font-family="LucidaGrande, Lucida Grande" font-size="12" font-weight="normal">
                    <tspan x="51.4472794" y="45.2614257"></tspan>
                </text>
            </g>
        </g>
    </g>
</svg>